HIERARCHY
ROOT Hips
{
	OFFSET 0.000000 0.000000 0.000000
	CHANNELS 6 Xposition Yposition Zposition Xrotation Yrotation Zrotation
	JOINT LeftUpLeg_virtual
	{
		OFFSET 0.000000 0.000000 0.000000
		CHANNELS 3 Xrotation Yrotation Zrotation
		JOINT LeftUpLeg
		{
			OFFSET 11.394100 -6.187798 -0.413800
			CHANNELS 3 Xrotation Yrotation Zrotation
			JOINT LeftLeg
			{
				OFFSET 0.430247 -32.302673 3.732800
				CHANNELS 3 Xrotation Yrotation Zrotation
				JOINT LeftFoot
				{
					OFFSET -0.430247 -48.264931 -6.423300
					CHANNELS 3 Xrotation Yrotation Zrotation
					JOINT LeftToeBase
					{
						OFFSET 4.230900 -16.068199 23.438400
						CHANNELS 3 Xrotation Yrotation Zrotation
						JOINT LeftToe_End
						{
							OFFSET 4.510700 0.695400 19.974600
							CHANNELS 3 Xrotation Yrotation Zrotation
							End Site
							{
								OFFSET 0 0 0
							}
						}
					}
				}
			}
		}
	}
	JOINT RightUpLeg_virtual
	{
		OFFSET 0.000000 0.000000 0.000000
		CHANNELS 3 Xrotation Yrotation Zrotation
		JOINT RightUpLeg
		{
			OFFSET -11.333700 -6.187798 -0.413800
			CHANNELS 3 Xrotation Yrotation Zrotation
			JOINT RightLeg
			{
				OFFSET -0.430392 -32.302628 3.733000
				CHANNELS 3 Xrotation Yrotation Zrotation
				JOINT RightFoot
				{
					OFFSET 0.430392 -48.264973 -6.423500
					CHANNELS 3 Xrotation Yrotation Zrotation
					JOINT RightToeBase
					{
						OFFSET -4.230900 -16.068199 23.438400
						CHANNELS 3 Xrotation Yrotation Zrotation
						JOINT RightToe_End
						{
							OFFSET -4.510700 0.695400 19.974600
							CHANNELS 3 Xrotation Yrotation Zrotation
							End Site
							{
								OFFSET 0 0 0
							}
						}
					}
				}
			}
		}
	}
	JOINT Spine_virtual
	{
		OFFSET 0.000000 0.000000 0.000000
		CHANNELS 3 Xrotation Yrotation Zrotation
		JOINT Spine
		{
			OFFSET -0.002400 12.777504 0.315300
			CHANNELS 3 Xrotation Yrotation Zrotation
			JOINT Spine1
			{
				OFFSET -0.002067 5.816869 0.032633
				CHANNELS 3 Xrotation Yrotation Zrotation
				JOINT Spine1_split
				{
					OFFSET -0.002067 5.816869 0.032633
					CHANNELS 3 Xrotation Yrotation Zrotation
					JOINT Spine2
					{
						OFFSET -0.002067 5.816869 0.032633
						CHANNELS 3 Xrotation Yrotation Zrotation
						JOINT Neck_virtual
						{
							OFFSET 0.000000 0.000000 0.000000
							CHANNELS 3 Xrotation Yrotation Zrotation
							JOINT Neck
							{
								OFFSET -0.003700 21.199493 -0.826900
								CHANNELS 3 Xrotation Yrotation Zrotation
								JOINT Head
								{
									OFFSET 0.000000 20.442200 4.834800
									CHANNELS 3 Xrotation Yrotation Zrotation
									JOINT HeadTop_End
									{
										OFFSET 0.000000 34.668396 4.968400
										CHANNELS 3 Xrotation Yrotation Zrotation
										End Site
										{
											OFFSET 0 0 0
										}
									}
								}
							}
						}
						JOINT LeftShoulder_virtual
						{
							OFFSET 0.000000 0.000000 0.000000
							CHANNELS 3 Xrotation Yrotation Zrotation
							JOINT LeftShoulder
							{
								OFFSET 3.288150 8.794197 -1.372250
								CHANNELS 3 Xrotation Yrotation Zrotation
								JOINT LeftShoulder_split
								{
									OFFSET 3.288150 8.794197 -1.372250
									CHANNELS 3 Xrotation Yrotation Zrotation
									JOINT LeftArm
									{
										OFFSET 11.953299 -2.279007 -0.146200
										CHANNELS 3 Xrotation Yrotation Zrotation
										JOINT LeftForeArm
										{
											OFFSET 18.448900 0.000000 0.000000
											CHANNELS 3 Xrotation Yrotation Zrotation
											JOINT LeftHand
											{
												OFFSET 29.527798 0.000000 0.000000
												CHANNELS 3 Xrotation Yrotation Zrotation
												End Site
												{
													OFFSET 0 0 0
												}
											}
										}
									}
								}
							}
						}
						JOINT RightShoulder_virtual
						{
							OFFSET 0.000000 0.000000 0.000000
							CHANNELS 3 Xrotation Yrotation Zrotation
							JOINT RightShoulder
							{
								OFFSET -3.249400 8.794197 -1.372250
								CHANNELS 3 Xrotation Yrotation Zrotation
								JOINT RightShoulder_split
								{
									OFFSET -3.249400 8.794197 -1.372250
									CHANNELS 3 Xrotation Yrotation Zrotation
									JOINT RightArm
									{
										OFFSET -11.953299 -2.279007 -0.146200
										CHANNELS 3 Xrotation Yrotation Zrotation
										JOINT RightForeArm
										{
											OFFSET -18.448900 0.000000 0.000000
											CHANNELS 3 Xrotation Yrotation Zrotation
											JOINT RightHand
											{
												OFFSET -29.527802 0.000000 0.000000
												CHANNELS 3 Xrotation Yrotation Zrotation
												End Site
												{
													OFFSET 0 0 0
												}
											}
										}
									}
								}
							}
						}
					}
				}
			}
		}
	}
}
MOTION
Frames: 4
Frame Time: 0.03333333
11.945920 65.483109 -47.621628 0.000000 0.000000 0.000000 39.336005 -25.503923 10.611686 -48.859089 -10.204736 -4.380012 96.265424 1.845200 -2.707464 15.845986 -0.073707 -7.579049 -6.957973 -14.068007 -44.345550 0.000000 0.000000 0.000000 41.706395 -24.384679 10.370836 -90.272199 -20.120720 -17.788106 96.586258 -15.426857 5.874779 -26.798071 -5.840108 4.703422 -9.233001 -1.033331 -0.381882 0.000000 0.000000 0.000000 37.543634 -25.377949 11.349101 40.380720 8.527145 3.446949 4.787155 1.996398 0.699432 0.113260 -0.214904 1.890892 0.000000 0.000000 0.000000 6.640757 2.344647 1.142176 -8.850145 -4.406578 0.933081 -21.857439 -17.131571 -6.273025 0.000000 0.000000 0.000000 5.330124 2.288089 0.618416 4.255327 -22.941455 -8.603354 5.529194 0.621526 -3.848622 -24.702523 -19.879949 -37.852212 1.555591 -36.474679 0.340683 0.000000 0.000000 0.000000 4.980110 2.098895 1.353744 1.042761 28.929980 12.492865 -0.379657 2.191329 -0.706160 -52.122574 47.282026 19.457291 -1.606549 16.264523 1.114973 0.000000 0.000000 0.000000 
12.181058 66.161530 -47.387154 0.000000 0.000000 0.000000 38.506073 -27.433412 11.320457 -51.213011 -5.783032 -1.581625 96.234060 1.069060 -4.742866 10.390680 -0.428140 -5.074440 -24.166507 -13.537183 -26.354251 0.000000 0.000000 0.000000 40.346262 -24.826647 10.594203 -89.186541 -19.757441 -18.434086 96.021067 -15.486339 6.860780 -28.760168 -5.985396 4.334862 -8.605571 -0.881347 -0.304792 0.000000 0.000000 0.000000 36.346203 -26.916660 11.606715 39.929812 8.279887 2.806705 4.909103 2.070072 0.564292 0.017498 -0.025006 1.866264 0.000000 0.000000 0.000000 6.814068 2.355872 0.963235 -7.897945 -3.745462 0.322013 -21.466272 -15.548454 -6.801690 0.000000 0.000000 0.000000 5.537337 2.332818 0.366571 4.621135 -23.741647 -9.014391 4.820607 0.171728 -3.754471 -22.212754 -17.194511 -36.923521 1.690245 -38.333890 0.279729 0.000000 0.000000 0.000000 5.154410 2.130161 1.139695 1.349949 28.342787 12.070852 -0.290971 2.261321 -0.994757 -49.651118 45.203657 19.479476 -1.636778 19.628415 1.149853 0.000000 0.000000 0.000000 
12.296869 66.740807 -46.800209 0.000000 0.000000 0.000000 37.659901 -28.646650 12.003711 -56.527393 -3.126511 0.313876 96.849186 -0.845994 -5.220047 8.324530 -3.217904 -5.783086 -48.343840 -18.813136 -6.405526 0.000000 0.000000 0.000000 39.200887 -25.765989 11.293381 -87.971293 -19.224170 -18.630748 95.657209 -15.652593 7.868678 -30.588306 -6.596003 3.652336 -8.569840 -0.541462 -0.485721 0.000000 0.000000 0.000000 35.514013 -27.920635 11.828053 39.141656 7.994443 1.785767 5.049073 2.156369 0.422732 -0.006371 -0.321926 1.786772 0.000000 0.000000 0.000000 6.850150 2.387309 0.792225 -7.137106 -3.092317 -0.315542 -21.028865 -13.748020 -7.160413 0.000000 0.000000 0.000000 5.735134 2.386667 0.141837 5.058074 -24.483469 -9.044102 4.192377 -0.379759 -3.598983 -20.167254 -14.602531 -35.911721 1.672673 -39.891566 0.152456 0.000000 0.000000 0.000000 5.355736 2.173550 0.928566 1.806948 27.448731 11.366040 -0.168554 2.037549 -1.230307 -47.720879 43.446806 19.693138 -1.662276 23.511480 1.294925 0.000000 0.000000 0.000000 
12.245436 67.312340 -45.913635 0.000000 0.000000 0.000000 36.753282 -28.970995 12.565982 -63.665498 -2.357279 1.191015 97.298872 -2.727281 -4.416303 8.957435 -6.549279 -7.972805 -73.671117 -27.287559 5.704361 0.000000 0.000000 0.000000 38.493628 -27.185061 12.321041 -86.435860 -18.542154 -18.426018 94.797493 -15.472240 8.435401 -31.701773 -7.428335 3.401177 -9.440198 -0.069314 -0.905463 0.000000 0.000000 0.000000 34.964787 -28.243623 11.887339 38.149721 7.678355 0.503491 5.234246 2.225870 0.293181 0.058608 -0.654151 1.770866 0.000000 0.000000 0.000000 6.787960 2.424481 0.651303 -6.625137 -2.527206 -0.928630 -20.628133 -11.929974 -7.358970 0.000000 0.000000 0.000000 5.939965 2.451214 -0.046708 5.554063 -25.170039 -8.650053 3.737426 -0.944631 -3.467836 -18.732386 -12.291829 -34.782923 1.523921 -41.262334 0.032137 0.000000 0.000000 0.000000 5.587865 2.237728 0.735123 2.348262 26.281152 10.463225 0.033036 1.648825 -1.346195 -46.520456 42.420174 20.063737 -1.734721 27.151744 1.542535 0.000000 0.000000 0.000000 
